<svg width="185" height="105" viewBox="0 0 185 105" fill="none" xmlns="http://www.w3.org/2000/svg">
<circle cx="92.1753" cy="54.309" r="47.5" fill="black"/>
<path d="M139.675 54.309C139.675 80.5425 118.409 101.809 92.1753 101.809C65.9418 101.809 44.6753 80.5425 44.6753 54.309C44.6753 28.0754 65.9418 6.80896 92.1753 6.80896C118.409 6.80896 139.675 28.0754 139.675 54.309Z" fill="url(#paint0_linear_108_116)"/>
<path fill-rule="evenodd" clip-rule="evenodd" d="M138.104 92.137C146.583 81.8547 151.675 68.6765 151.675 54.309C151.675 38.9408 145.849 24.9334 136.284 14.3754C169.916 27.9761 185 53.6338 185 53.6338C185 53.6338 170.461 78.3649 138.104 92.137ZM45.8926 91.7041C14.2384 77.8536 0 53.6338 0 53.6338C0 53.6338 14.7763 28.4992 47.6877 14.7972C38.3483 25.3051 32.6753 39.1445 32.6753 54.309C32.6753 68.4757 37.6264 81.4861 45.8926 91.7041Z" fill="black"/>
<path d="M125.597 20.2711C116.575 11.4789 104.429 6.63088 91.8324 6.79357C79.2357 6.95627 67.2195 12.1163 58.4273 21.1386L92.4458 54.2896L125.597 20.2711Z" fill="url(#paint1_linear_108_116)"/>
<path d="M119.007 27.1783C113.645 21.9251 106.845 18.3798 99.4682 16.9909C92.0912 15.6021 84.468 16.4319 77.5626 19.3755C70.6572 22.3191 64.7798 27.2443 60.6736 33.5283C56.5674 39.8122 54.4168 47.1727 54.4937 54.6789C54.5707 62.1851 56.8718 69.5 61.1061 75.6984C65.3403 81.8968 71.3175 86.7004 78.2818 89.5018C85.2461 92.3032 92.8847 92.9765 100.232 91.4366C107.579 89.8967 114.304 86.2128 119.557 80.8507L110.635 72.1097C107.111 75.7072 102.599 78.1788 97.6694 79.2119C92.7403 80.2451 87.6154 79.7933 82.943 77.9139C78.2706 76.0344 74.2605 72.8116 71.4197 68.653C68.5789 64.4944 67.035 59.5868 66.9834 54.5508C66.9318 49.5148 68.3746 44.5766 71.1295 40.3607C73.8844 36.1447 77.8276 32.8403 82.4605 30.8654C87.0934 28.8905 92.2079 28.3338 97.1572 29.2656C102.106 30.1974 106.668 32.5759 110.266 36.1004L119.007 27.1783Z" fill="#009ED4"/>
<path fill-rule="evenodd" clip-rule="evenodd" d="M118.935 27.1076C116.273 24.5137 113.226 22.3063 109.876 20.5746C102.076 16.542 93.1188 15.3388 84.531 17.1699C77.1728 18.7389 70.4758 22.4523 65.2638 27.8008L74.2091 36.518C77.7059 32.9296 82.199 30.4383 87.1357 29.3856C92.8973 28.1571 98.9067 28.9644 104.14 31.6698C106.387 32.8316 108.432 34.3126 110.217 36.0529L118.935 27.1076Z" fill="white"/>
<defs>
<linearGradient id="paint0_linear_108_116" x1="92.6753" y1="28.1338" x2="92.6753" y2="130.134" gradientUnits="userSpaceOnUse">
<stop/>
<stop offset="1" stop-color="#009ED4"/>
</linearGradient>
<linearGradient id="paint1_linear_108_116" x1="90.6808" y1="-23.0524" x2="90.6808" y2="94.1338" gradientUnits="userSpaceOnUse">
<stop offset="0.224566" stop-color="#009ED4"/>
<stop offset="1" stop-color="#00385F" stop-opacity="0"/>
</linearGradient>
</defs>
</svg>
